<svg width="25" height="25" viewBox="0 0 25 25" fill="none" xmlns="http://www.w3.org/2000/svg">
<path d="M12.5 7.81251C13.244 4.72852 16.0542 3.15381 22.1726 3.12501C22.2704 3.12462 22.3673 3.14456 22.4578 3.18369C22.5482 3.22281 22.6304 3.28034 22.6995 3.35296C22.7687 3.42559 22.8235 3.51187 22.8608 3.60683C22.898 3.70179 22.917 3.80355 22.9167 3.90626V17.9688C22.9167 18.176 22.8383 18.3747 22.6987 18.5212C22.5592 18.6677 22.3699 18.75 22.1726 18.75C16.2202 18.75 13.9207 20.0103 12.5 21.875M12.5 7.81251C11.7559 4.72852 8.94576 3.15381 2.82737 3.12501C2.72955 3.12462 2.63263 3.14456 2.5422 3.18369C2.45176 3.22281 2.36959 3.28034 2.30042 3.35296C2.23126 3.42559 2.17647 3.51187 2.1392 3.60683C2.10194 3.70179 2.08295 3.80355 2.08332 3.90626V17.8745C2.08332 18.3569 2.36792 18.75 2.82737 18.75C8.77975 18.75 11.0877 20.0195 12.5 21.875M12.5 7.81251V21.875" stroke="#C3C1C1" stroke-width="1.25" stroke-linecap="round" stroke-linejoin="round"/>
</svg>
