<svg width="20" height="20" viewBox="0 0 20 20" fill="none" xmlns="http://www.w3.org/2000/svg">
<path d="M16.25 4.6875H13.9164L12.7594 2.95156C12.7309 2.90886 12.6923 2.87384 12.6471 2.84959C12.6018 2.82533 12.5513 2.8126 12.5 2.8125H7.5C7.44867 2.8126 7.39815 2.82533 7.35292 2.84959C7.30768 2.87384 7.26911 2.90886 7.24062 2.95156L6.08203 4.6875H3.75C3.3356 4.6875 2.93817 4.85212 2.64515 5.14515C2.35212 5.43817 2.1875 5.8356 2.1875 6.25V15C2.1875 15.4144 2.35212 15.8118 2.64515 16.1049C2.93817 16.3979 3.3356 16.5625 3.75 16.5625H16.25C16.6644 16.5625 17.0618 16.3979 17.3549 16.1049C17.6479 15.8118 17.8125 15.4144 17.8125 15V6.25C17.8125 5.8356 17.6479 5.43817 17.3549 5.14515C17.0618 4.85212 16.6644 4.6875 16.25 4.6875ZM17.1875 15C17.1875 15.2486 17.0887 15.4871 16.9129 15.6629C16.7371 15.8387 16.4986 15.9375 16.25 15.9375H3.75C3.50136 15.9375 3.2629 15.8387 3.08709 15.6629C2.91127 15.4871 2.8125 15.2486 2.8125 15V6.25C2.8125 6.00136 2.91127 5.7629 3.08709 5.58709C3.2629 5.41127 3.50136 5.3125 3.75 5.3125H6.25C6.30146 5.31253 6.35214 5.29986 6.39752 5.2756C6.4429 5.25134 6.4816 5.21625 6.51016 5.17344L7.66641 3.4375H12.332L13.4898 5.17344C13.5184 5.21625 13.5571 5.25134 13.6025 5.2756C13.6479 5.29986 13.6985 5.31253 13.75 5.3125H16.25C16.4986 5.3125 16.7371 5.41127 16.9129 5.58709C17.0887 5.7629 17.1875 6.00136 17.1875 6.25V15ZM10 7.1875C9.38193 7.1875 8.77775 7.37078 8.26384 7.71416C7.74994 8.05754 7.3494 8.5456 7.11288 9.11661C6.87635 9.68763 6.81447 10.316 6.93505 10.9222C7.05562 11.5283 7.35325 12.0852 7.79029 12.5222C8.22733 12.9592 8.78415 13.2569 9.39034 13.3775C9.99653 13.498 10.6249 13.4361 11.1959 13.1996C11.7669 12.9631 12.255 12.5626 12.5983 12.0487C12.9417 11.5348 13.125 10.9306 13.125 10.3125C13.125 9.4837 12.7958 8.68884 12.2097 8.10279C11.6237 7.51674 10.8288 7.1875 10 7.1875ZM10 12.8125C9.50555 12.8125 9.0222 12.6659 8.61107 12.3912C8.19995 12.1165 7.87952 11.726 7.6903 11.2692C7.50108 10.8124 7.45157 10.3097 7.54804 9.82477C7.6445 9.33982 7.8826 8.89436 8.23223 8.54473C8.58186 8.1951 9.02732 7.957 9.51227 7.86054C9.99723 7.76407 10.4999 7.81358 10.9567 8.0028C11.4135 8.19202 11.804 8.51245 12.0787 8.92357C12.3534 9.3347 12.5 9.81805 12.5 10.3125C12.5 10.9755 12.2366 11.6114 11.7678 12.0803C11.2989 12.5491 10.663 12.8125 10 12.8125Z" fill="black"/>
</svg>
