<svg width="18" height="14" viewBox="0 0 18 14" fill="none" xmlns="http://www.w3.org/2000/svg">
<path d="M8.95765 10.8269C6.91451 10.8269 5.26061 9.23777 5.10842 7.22399L2.28277 5.02966C1.91132 5.49792 1.56949 5.99298 1.29366 6.53432C1.23204 6.6568 1.19994 6.79212 1.19994 6.92936C1.19994 7.0666 1.23204 7.20192 1.29366 7.32441C2.75443 10.1884 5.64634 12.1261 8.95765 12.1261C9.68251 12.1261 10.3818 12.0178 11.0557 11.843L9.658 10.7562C9.42716 10.801 9.19274 10.8247 8.95765 10.8269ZM17.4109 12.3995L14.433 10.0869C15.3376 9.32084 16.0816 8.38172 16.6216 7.32413C16.6833 7.20165 16.7154 7.06633 16.7154 6.92909C16.7154 6.79185 16.6833 6.65653 16.6216 6.53405C15.1609 3.67009 12.269 1.73236 8.95765 1.73236C7.57082 1.73405 6.20651 2.08487 4.98936 2.75279L1.56249 0.0912869C1.5178 0.0563454 1.4667 0.0305946 1.41211 0.015506C1.35751 0.00041745 1.30049 -0.0037132 1.24431 0.00335015C1.18812 0.0104135 1.13388 0.0285324 1.08466 0.0566714C1.03545 0.0848104 0.992238 0.122418 0.957495 0.167345L0.428731 0.851329C0.358587 0.941999 0.327157 1.05695 0.341351 1.17091C0.355546 1.28486 0.414203 1.38848 0.504422 1.45898L16.3528 13.7672C16.3975 13.8021 16.4486 13.8279 16.5032 13.8429C16.5578 13.858 16.6148 13.8622 16.671 13.8551C16.7272 13.848 16.7814 13.8299 16.8306 13.8018C16.8798 13.7736 16.9231 13.736 16.9578 13.6911L17.4868 13.0071C17.5569 12.9164 17.5883 12.8014 17.5741 12.6875C17.5598 12.5735 17.5011 12.4699 17.4109 12.3995ZM12.4621 8.55595L11.4035 7.73366C11.4926 7.47475 11.5399 7.20317 11.5436 6.92923C11.5488 6.52816 11.4604 6.13145 11.2854 5.77096C11.1104 5.41047 10.8537 5.09624 10.5359 4.85352C10.2181 4.6108 9.84812 4.44635 9.45562 4.37338C9.06311 4.30041 8.65905 4.32096 8.27588 4.43338C8.43831 4.65454 8.52618 4.92207 8.52666 5.19694C8.52264 5.28841 8.50873 5.37916 8.48518 5.46761L6.50238 3.92777C7.19114 3.3494 8.06005 3.03224 8.95765 3.03158C9.46711 3.03129 9.97163 3.13191 10.4424 3.32769C10.9131 3.52346 11.3408 3.81055 11.701 4.17254C12.0613 4.53452 12.347 4.96431 12.5418 5.43732C12.7367 5.91034 12.8368 6.4173 12.8365 6.92923C12.8365 7.51469 12.694 8.06036 12.4621 8.55622V8.55595Z" fill="#C7B72F"/>
</svg>
