<svg width="26" height="25" viewBox="0 0 26 25" fill="none" xmlns="http://www.w3.org/2000/svg">
<rect width="25" height="25" transform="translate(0.595245)" fill="white"/>
<path d="M22.4702 19.7917V12.7781C22.4702 12.213 22.3553 11.6537 22.1323 11.1344C21.9094 10.6151 21.5831 10.1465 21.1734 9.75729L14.5307 3.44792C14.1435 3.08009 13.6298 2.875 13.0958 2.875C12.5617 2.875 12.0481 3.08009 11.6609 3.44792L5.01712 9.75729C4.60738 10.1465 4.28112 10.6151 4.05817 11.1344C3.83522 11.6537 3.72024 12.213 3.72025 12.7781V19.7917C3.72025 20.3442 3.93974 20.8741 4.33044 21.2648C4.72114 21.6555 5.25104 21.875 5.80358 21.875H20.3869C20.9394 21.875 21.4693 21.6555 21.8601 21.2648C22.2508 20.8741 22.4702 20.3442 22.4702 19.7917Z" stroke="#C3C1C1" stroke-width="1.66667" stroke-linecap="round" stroke-linejoin="round"/>
</svg>
