<svg width="22" height="26" viewBox="0 0 22 26" fill="none" xmlns="http://www.w3.org/2000/svg">
<path d="M0.626465 18.4857H13.436C13.5183 18.4858 13.5998 18.4667 13.6758 18.4295C13.7519 18.3922 13.821 18.3376 13.8792 18.2688C13.9373 18.2 13.9835 18.1182 14.0149 18.0283C14.0464 17.9383 14.0626 17.8419 14.0625 17.7446V15.5297C14.0626 15.4324 14.0464 15.336 14.0149 15.246C13.9835 15.1561 13.9373 15.0743 13.8792 15.0055C13.821 14.9366 13.7519 14.8821 13.6758 14.8448C13.5998 14.8076 13.5183 14.7885 13.436 14.7886H0.626465C0.544178 14.7885 0.462687 14.8076 0.386651 14.8448C0.310616 14.8821 0.24153 14.9366 0.183344 15.0055C0.125159 15.0743 0.0790163 15.1561 0.0475562 15.246C0.0160961 15.336 -6.40206e-05 15.4324 1.90603e-07 15.5297V17.7446C-6.40206e-05 17.8419 0.0160961 17.9383 0.0475562 18.0283C0.0790163 18.1182 0.125159 18.2 0.183344 18.2688C0.24153 18.3376 0.310616 18.3922 0.386651 18.4295C0.462687 18.4667 0.544178 18.4858 0.626465 18.4857ZM0.626465 3.69714H13.436C13.5183 3.69722 13.5998 3.6781 13.6758 3.64088C13.7519 3.60366 13.821 3.54907 13.8792 3.48023C13.9373 3.41139 13.9835 3.32966 14.0149 3.2397C14.0464 3.14975 14.0626 3.05333 14.0625 2.95598V0.741162C14.0626 0.64381 14.0464 0.547398 14.0149 0.457442C13.9835 0.367486 13.9373 0.28575 13.8792 0.216912C13.821 0.148074 13.7519 0.0934829 13.6758 0.056263C13.5998 0.019043 13.5183 -7.57418e-05 13.436 2.25501e-07H0.626465C0.544178 -7.57418e-05 0.462687 0.019043 0.386651 0.056263C0.310616 0.0934829 0.24153 0.148074 0.183344 0.216912C0.125159 0.28575 0.0790163 0.367486 0.0475562 0.457442C0.0160961 0.547398 -6.40206e-05 0.64381 1.90603e-07 0.741162V2.95598C-6.40206e-05 3.05333 0.0160961 3.14975 0.0475562 3.2397C0.0790163 3.32966 0.125159 3.41139 0.183344 3.48023C0.24153 3.54907 0.310616 3.60366 0.386651 3.64088C0.462687 3.6781 0.544178 3.69722 0.626465 3.69714ZM21.0938 7.39429H0.78125C0.57405 7.39429 0.375336 7.49167 0.228823 7.665C0.0823102 7.83834 1.90603e-07 8.07343 1.90603e-07 8.31857V10.1671C1.90603e-07 10.4123 0.0823102 10.6474 0.228823 10.8207C0.375336 10.994 0.57405 11.0914 0.78125 11.0914H21.0938C21.301 11.0914 21.4997 10.994 21.6462 10.8207C21.7927 10.6474 21.875 10.4123 21.875 10.1671V8.31857C21.875 8.07343 21.7927 7.83834 21.6462 7.665C21.4997 7.49167 21.301 7.39429 21.0938 7.39429ZM21.0938 22.1829H0.78125C0.57405 22.1829 0.375336 22.2802 0.228823 22.4536C0.0823102 22.6269 1.90603e-07 22.862 1.90603e-07 23.1071V24.9557C1.90603e-07 25.2008 0.0823102 25.4359 0.228823 25.6093C0.375336 25.7826 0.57405 25.88 0.78125 25.88H21.0938C21.301 25.88 21.4997 25.7826 21.6462 25.6093C21.7927 25.4359 21.875 25.2008 21.875 24.9557V23.1071C21.875 22.862 21.7927 22.6269 21.6462 22.4536C21.4997 22.2802 21.301 22.1829 21.0938 22.1829Z" fill="#6F6E6E"/>
</svg>
