<svg width="26" height="26" viewBox="0 0 26 26" fill="none" xmlns="http://www.w3.org/2000/svg">
<g clip-path="url(#clip0_124_143)">
<path d="M12.94 24.6435C13.3928 24.6331 13.8274 24.4628 14.1668 24.1629C14.5063 23.8629 14.7287 23.4526 14.7947 23.0045H11.0134C11.0813 23.4648 11.3141 23.8847 11.6685 24.1862C12.0229 24.4877 12.4747 24.6502 12.94 24.6435Z" fill="#6F6E6E"/>
<path d="M23.3711 20.0066C22.6779 19.3887 22.0709 18.6802 21.5667 17.9003C21.0162 16.8238 20.6862 15.6482 20.5962 14.4425V10.8911C20.5933 10.4598 20.5548 10.0294 20.4812 9.60433C19.9153 9.49122 19.3715 9.2873 18.8708 9.00046C19.0617 9.615 19.1586 10.2548 19.1584 10.8983V14.4496C19.2465 15.9205 19.6511 17.355 20.3446 18.6551C20.8409 19.4416 21.4298 20.1657 22.0987 20.8118H3.68792C4.35678 20.1657 4.94568 19.4416 5.442 18.6551C6.13545 17.355 6.54006 15.9205 6.62817 14.4496V10.8911C6.62439 10.0592 6.78475 9.2346 7.10008 8.46469C7.41541 7.69477 7.87951 6.99462 8.46581 6.40431C9.0521 5.81401 9.74908 5.34515 10.5168 5.02458C11.2846 4.70402 12.108 4.53804 12.94 4.53616C14.1576 4.53714 15.3479 4.89723 16.3619 5.57136C16.2501 5.16087 16.1874 4.73857 16.175 4.31331V3.86041C15.4244 3.49116 14.618 3.24827 13.7883 3.14152V2.23572C13.7883 1.98118 13.6872 1.73708 13.5072 1.5571C13.3272 1.37711 13.0831 1.276 12.8286 1.276C12.5741 1.276 12.3299 1.37711 12.15 1.5571C11.97 1.73708 11.8689 1.98118 11.8689 2.23572V3.17746C10.0111 3.43954 8.31078 4.36488 7.08195 5.78267C5.85311 7.20045 5.1787 9.01494 5.1832 10.8911V14.4425C5.09317 15.6482 4.76321 16.8238 4.2127 17.9003C3.71731 18.6784 3.12013 19.3868 2.43705 20.0066C2.36037 20.074 2.29891 20.1569 2.25676 20.2499C2.21462 20.3429 2.19276 20.4437 2.19263 20.5458V21.5235C2.19263 21.7142 2.26837 21.897 2.40318 22.0318C2.538 22.1667 2.72085 22.2424 2.91152 22.2424H22.8966C23.0873 22.2424 23.2701 22.1667 23.405 22.0318C23.5398 21.897 23.6155 21.7142 23.6155 21.5235V20.5458C23.6154 20.4437 23.5935 20.3429 23.5514 20.2499C23.5092 20.1569 23.4478 20.074 23.3711 20.0066Z" fill="#6F6E6E"/>
<path d="M21.5667 7.90776C23.5518 7.90776 25.1611 6.29847 25.1611 4.31332C25.1611 2.32816 23.5518 0.718872 21.5667 0.718872C19.5815 0.718872 17.9722 2.32816 17.9722 4.31332C17.9722 6.29847 19.5815 7.90776 21.5667 7.90776Z" fill="#FC1616"/>
</g>
<defs>
<clipPath id="clip0_124_143">
<rect width="25.88" height="25.88" fill="white"/>
</clipPath>
</defs>
</svg>
