<svg width="16" height="15" viewBox="0 0 16 15" fill="none" xmlns="http://www.w3.org/2000/svg">
<g id="ph:eye-thin">
<path id="Vector" d="M14.7185 7.45095C14.6979 7.40595 14.2038 6.33247 13.0978 5.24832C12.0733 4.24411 10.3112 3.04688 7.73192 3.04688C5.15258 3.04688 3.39054 4.24411 2.36606 5.24832C1.26003 6.33247 0.765905 7.40595 0.745367 7.45095C0.731916 7.48132 0.724976 7.51407 0.724976 7.54717C0.724976 7.58027 0.731916 7.61302 0.745367 7.64339C0.765905 7.68898 1.26003 8.76187 2.36606 9.84602C3.39296 10.8526 5.15319 12.0469 7.73192 12.0469C10.3106 12.0469 12.0733 10.8502 13.0978 9.84602C14.2038 8.76187 14.6979 7.68898 14.7185 7.64339C14.7319 7.61302 14.7389 7.58027 14.7389 7.54717C14.7389 7.51407 14.7319 7.48132 14.7185 7.45095ZM12.7432 9.52332C11.3496 10.8852 9.66249 11.5732 7.7295 11.5732C5.79651 11.5732 4.11179 10.8834 2.71581 9.52332C2.12183 8.94267 1.6223 8.27609 1.23465 7.54687C1.62302 6.81749 2.12338 6.1509 2.71822 5.57043C4.11421 4.21036 5.79893 3.52056 7.73192 3.52056C9.66491 3.52056 11.3496 4.21036 12.7456 5.57043C13.3404 6.15096 13.8407 6.81753 14.2292 7.54687C13.8408 8.27625 13.3404 8.94284 12.7456 9.52332H12.7432ZM7.73192 4.94161C7.20624 4.94161 6.69237 5.09441 6.25529 5.38068C5.81821 5.66695 5.47754 6.07383 5.27637 6.54988C5.07521 7.02593 5.02257 7.54976 5.12513 8.05514C5.22768 8.56051 5.48082 9.02472 5.85253 9.38907C6.22423 9.75343 6.69782 10.0016 7.21339 10.1021C7.72897 10.2026 8.26338 10.151 8.74904 9.95382C9.2347 9.75664 9.6498 9.42271 9.94185 8.99428C10.2339 8.56585 10.3898 8.06215 10.3898 7.54687C10.389 6.85616 10.1087 6.19395 9.61042 5.70554C9.11215 5.21713 8.43658 4.94239 7.73192 4.94161ZM7.73192 9.67845C7.30182 9.67845 6.88138 9.55344 6.52377 9.31922C6.16615 9.085 5.88743 8.75209 5.72284 8.36259C5.55824 7.9731 5.51518 7.54451 5.59909 7.13102C5.683 6.71754 5.89011 6.33773 6.19423 6.03962C6.49836 5.74151 6.88584 5.5385 7.30767 5.45625C7.7295 5.37401 8.16675 5.41622 8.56411 5.57755C8.96146 5.73889 9.30109 6.0121 9.54004 6.36263C9.77899 6.71317 9.90653 7.12529 9.90653 7.54687C9.90653 8.1122 9.67742 8.65438 9.2696 9.05413C8.86178 9.45388 8.30866 9.67845 7.73192 9.67845Z" fill="#828282"/>
</g>
</svg>
