<svg width="15" height="15" viewBox="0 0 15 15" fill="none" xmlns="http://www.w3.org/2000/svg">
<g clip-path="url(#clip0_83_2239)">
<path d="M2.9375 7.46834V14.0308C2.9375 14.1171 3.0075 14.1871 3.09375 14.1871H10.9062C10.9477 14.1871 10.9874 14.1706 11.0167 14.1413C11.046 14.112 11.0625 14.0723 11.0625 14.0308V7.46834C11.0625 7.4269 11.046 7.38715 11.0167 7.35785C10.9874 7.32855 10.9477 7.31209 10.9062 7.31209H9.34375C9.21943 7.31209 9.1002 7.2627 9.01229 7.17479C8.92438 7.08689 8.875 6.96766 8.875 6.84334C8.875 6.71902 8.92438 6.59979 9.01229 6.51188C9.1002 6.42397 9.21943 6.37459 9.34375 6.37459H10.9062C11.51 6.37459 12 6.86459 12 7.46834V14.0308C12 14.3209 11.8848 14.5991 11.6796 14.8042C11.4745 15.0094 11.1963 15.1246 10.9062 15.1246H3.09375C2.80367 15.1246 2.52547 15.0094 2.32035 14.8042C2.11523 14.5991 2 14.3209 2 14.0308V7.46834C2 6.86459 2.49 6.37459 3.09375 6.37459H4.65625C4.78057 6.37459 4.8998 6.42397 4.98771 6.51188C5.07561 6.59979 5.125 6.71902 5.125 6.84334C5.125 6.96766 5.07561 7.08689 4.98771 7.17479C4.8998 7.2627 4.78057 7.31209 4.65625 7.31209H3.09375C3.05231 7.31209 3.01257 7.32855 2.98326 7.35785C2.95396 7.38715 2.9375 7.4269 2.9375 7.46834ZM7.33125 2.13709L9.3625 4.16834C9.4242 4.22563 9.46931 4.29851 9.49307 4.37929C9.51683 4.46007 9.51836 4.54576 9.4975 4.62734C9.47664 4.70892 9.43417 4.78336 9.37455 4.84282C9.31493 4.90228 9.24038 4.94457 9.15875 4.96521C9.07726 4.9861 8.99166 4.98464 8.91093 4.96099C8.8302 4.93735 8.75734 4.89239 8.7 4.83084L7.46875 3.59959V10.2808C7.46875 10.4052 7.41936 10.5244 7.33145 10.6123C7.24355 10.7002 7.12432 10.7496 7 10.7496C6.87568 10.7496 6.75645 10.7002 6.66854 10.6123C6.58064 10.5244 6.53125 10.4052 6.53125 10.2808V3.59959L5.3 4.83084C5.21109 4.91359 5.09355 4.95866 4.97211 4.95656C4.85066 4.95446 4.73475 4.90536 4.64875 4.81959C4.56297 4.73359 4.51388 4.61768 4.51178 4.49623C4.50968 4.37478 4.55474 4.25725 4.6375 4.16834L6.66875 2.13709C6.75664 2.04931 6.87578 2 7 2C7.12422 2 7.24336 2.04931 7.33125 2.13709Z" fill="#C3C1C1"/>
</g>
<defs>
<clipPath id="clip0_83_2239">
<rect width="15" height="15" fill="white"/>
</clipPath>
</defs>
</svg>
