<svg width="13" height="13" viewBox="0 0 13 13" fill="none" xmlns="http://www.w3.org/2000/svg">
<path d="M6.5 1.42188C5.49564 1.42187 4.51384 1.7197 3.67875 2.27769C2.84365 2.83569 2.19278 3.62878 1.80843 4.55669C1.42408 5.48459 1.32351 6.50563 1.51945 7.49069C1.71539 8.47575 2.19904 9.38059 2.90923 10.0908C3.61941 10.801 4.52425 11.2846 5.50931 11.4806C6.49437 11.6765 7.51541 11.5759 8.44332 11.1916C9.37122 10.8072 10.1643 10.1564 10.7223 9.32126C11.2803 8.48616 11.5781 7.50436 11.5781 6.5C11.5767 5.15365 11.0412 3.86287 10.0891 2.91086C9.13713 1.95884 7.84635 1.42335 6.5 1.42188ZM6.5 11.1719C5.57599 11.1719 4.67273 10.8979 3.90445 10.3845C3.13616 9.87117 2.53736 9.14152 2.18375 8.28785C1.83015 7.43418 1.73763 6.49482 1.9179 5.58856C2.09816 4.68231 2.54311 3.84986 3.19649 3.19649C3.84986 2.54311 4.68231 2.09816 5.58857 1.91789C6.49482 1.73763 7.43418 1.83015 8.28785 2.18375C9.14153 2.53735 9.87117 3.13616 10.3845 3.90445C10.8979 4.67273 11.1719 5.57599 11.1719 6.5C11.1705 7.73865 10.6779 8.92618 9.80203 9.80203C8.92618 10.6779 7.73865 11.1705 6.5 11.1719ZM9.54688 6.5C9.54688 6.55387 9.52548 6.60554 9.48738 6.64363C9.44929 6.68173 9.39763 6.70313 9.34375 6.70313H6.5C6.44613 6.70313 6.39446 6.68173 6.35637 6.64363C6.31828 6.60554 6.29688 6.55387 6.29688 6.5V3.65625C6.29688 3.60238 6.31828 3.55071 6.35637 3.51262C6.39446 3.47453 6.44613 3.45313 6.5 3.45313C6.55387 3.45313 6.60554 3.47453 6.64363 3.51262C6.68173 3.55071 6.70313 3.60238 6.70313 3.65625V6.29688H9.34375C9.39763 6.29688 9.44929 6.31828 9.48738 6.35637C9.52548 6.39446 9.54688 6.44613 9.54688 6.5Z" fill="#828282"/>
</svg>
