<svg width="26" height="25" viewBox="0 0 26 25" fill="none" xmlns="http://www.w3.org/2000/svg">
<path d="M12.9048 4.16668C11.7997 4.16668 10.7399 4.60566 9.95851 5.38706C9.1771 6.16847 8.73812 7.22827 8.73812 8.33334C8.73812 9.43841 9.1771 10.4982 9.95851 11.2796C10.7399 12.061 11.7997 12.5 12.9048 12.5C14.0099 12.5 15.0697 12.061 15.8511 11.2796C16.6325 10.4982 17.0715 9.43841 17.0715 8.33334C17.0715 7.22827 16.6325 6.16847 15.8511 5.38706C15.0697 4.60566 14.0099 4.16668 12.9048 4.16668ZM6.65479 8.33334C6.65479 6.67574 7.31327 5.08603 8.48537 3.91393C9.65747 2.74182 11.2472 2.08334 12.9048 2.08334C14.5624 2.08334 16.1521 2.74182 17.3242 3.91393C18.4963 5.08603 19.1548 6.67574 19.1548 8.33334C19.1548 9.99095 18.4963 11.5807 17.3242 12.7528C16.1521 13.9249 14.5624 14.5833 12.9048 14.5833C11.2472 14.5833 9.65747 13.9249 8.48537 12.7528C7.31327 11.5807 6.65479 9.99095 6.65479 8.33334ZM8.73812 18.75C7.90932 18.75 7.11446 19.0792 6.52841 19.6653C5.94236 20.2514 5.61312 21.0462 5.61312 21.875C5.61312 22.1513 5.50337 22.4162 5.30802 22.6116C5.11267 22.8069 4.84772 22.9167 4.57145 22.9167C4.29518 22.9167 4.03023 22.8069 3.83488 22.6116C3.63953 22.4162 3.52979 22.1513 3.52979 21.875C3.52979 20.4937 4.07852 19.1689 5.05527 18.1922C6.03202 17.2154 7.35678 16.6667 8.73812 16.6667H17.0715C18.4528 16.6667 19.7775 17.2154 20.7543 18.1922C21.7311 19.1689 22.2798 20.4937 22.2798 21.875C22.2798 22.1513 22.17 22.4162 21.9747 22.6116C21.7793 22.8069 21.5144 22.9167 21.2381 22.9167C20.9619 22.9167 20.6969 22.8069 20.5015 22.6116C20.3062 22.4162 20.1965 22.1513 20.1965 21.875C20.1965 21.0462 19.8672 20.2514 19.2812 19.6653C18.6951 19.0792 17.9003 18.75 17.0715 18.75H8.73812Z" fill="#C3C1C1"/>
</svg>
